<svg
  width="140"
  height="140"
  viewBox="0 0 140 140"
  xmlns="http://www.w3.org/2000/svg"
>
  <g transform="translate(70 70)">
    <g stroke="#444" stroke-width="2">
      <line x1="0" y1="-58" x2="0" y2="-64" transform="rotate(-135)" />
      <line x1="0" y1="-58" x2="0" y2="-64" transform="rotate(-120)" />
      <line x1="0" y1="-58" x2="0" y2="-64" transform="rotate(-105)" />
      <line x1="0" y1="-58" x2="0" y2="-64" transform="rotate(-90)" />
      <line x1="0" y1="-58" x2="0" y2="-64" transform="rotate(-75)" />
      <line x1="0" y1="-58" x2="0" y2="-64" transform="rotate(-60)" />
      <line x1="0" y1="-58" x2="0" y2="-64" transform="rotate(-45)" />
      <line x1="0" y1="-58" x2="0" y2="-64" transform="rotate(-30)" />
      <line x1="0" y1="-58" x2="0" y2="-64" transform="rotate(-15)" />
      <line x1="0" y1="-58" x2="0" y2="-64" transform="rotate(0)" />
      <line x1="0" y1="-58" x2="0" y2="-64" transform="rotate(15)" />
      <line x1="0" y1="-58" x2="0" y2="-64" transform="rotate(30)" />
      <line x1="0" y1="-58" x2="0" y2="-64" transform="rotate(45)" />
      <line x1="0" y1="-58" x2="0" y2="-64" transform="rotate(60)" />
      <line x1="0" y1="-58" x2="0" y2="-64" transform="rotate(75)" />
      <line x1="0" y1="-58" x2="0" y2="-64" transform="rotate(90)" />
      <line x1="0" y1="-58" x2="0" y2="-64" transform="rotate(105)" />
      <line x1="0" y1="-58" x2="0" y2="-64" transform="rotate(120)" />
      <line x1="0" y1="-58" x2="0" y2="-64" transform="rotate(135)" />
    </g>

    <circle cx="3" cy="4" r="44" fill="#6f6f6f" />

    <circle cx="0" cy="0" r="44" fill="#c0c0c0" stroke="#000" stroke-width="2" />

    <path d="M -30 -30 A 42 42 0 0 1 30 -30" stroke="#ffffff" stroke-width="4" fill="none" />
    <path d="M 30 30 A 42 42 0 0 1 -30 30" stroke="#555" stroke-width="4" fill="none" />

    <circle cx="0" cy="0" r="35" fill="#d6d6d6" stroke="#9a9a9a" stroke-width="1" />

    <g transform="rotate(35)">
      <rect x="-3" y="-34" width="6" height="18" rx="1" fill="#111" />
    </g>

    <circle cx="0" cy="0" r="5" fill="#8a8a8a" />
  </g>
</svg>